<?xml version="1.0" standalone="no"?>
<!DOCTYPE svg PUBLIC "-//W3C//DTD SVG 20010904//EN"
 "http://www.w3.org/TR/2001/REC-SVG-20010904/DTD/svg10.dtd">
<svg version="1.0" xmlns="http://www.w3.org/2000/svg"
 width="1527.000000pt" height="442.000000pt" viewBox="0 0 1527.000000 442.000000"
 preserveAspectRatio="xMidYMid meet">

<g transform="translate(0.000000,442.000000) scale(0.100000,-0.100000)"
fill="#000000" stroke="none">
<path d="M2317 3943 c18 -2 50 -2 70 0 21 2 7 4 -32 4 -38 0 -55 -2 -38 -4z"/>
<path d="M3110 3940 c519 -50 983 -257 1318 -588 247 -244 401 -525 474 -864
31 -149 31 -418 -1 -568 -107 -506 -421 -913 -914 -1189 -93 -51 -231 -110
-372 -157 -151 -50 -153 -56 -4 -15 729 205 1266 744 1386 1391 26 143 23 411
-6 550 -90 425 -330 779 -716 1055 -317 226 -747 372 -1150 389 l-110 5 95 -9z"/>
<path d="M2096 3924 c-837 -130 -1492 -690 -1648 -1407 -30 -140 -33 -457 -4
-587 31 -143 75 -269 137 -395 210 -424 630 -773 1129 -939 169 -56 243 -70
95 -18 -210 74 -357 146 -517 253 -493 332 -778 835 -778 1375 0 421 167 810
485 1130 314 316 721 516 1200 588 73 11 81 14 40 14 -27 0 -90 -6 -139 -14z"/>
<path d="M2560 3458 c0 -2 25 -60 55 -127 30 -67 55 -126 55 -131 0 -4 -9 -6
-21 -3 -20 6 -20 4 6 -47 l27 -52 -25 -27 c-13 -14 -131 -150 -262 -301 -131
-151 -249 -286 -263 -300 l-25 -25 27 49 c14 27 26 50 26 53 0 2 -13 -3 -29
-11 -16 -9 -30 -14 -32 -12 -4 4 -189 -248 -197 -266 -2 -5 120 -8 272 -8
l276 0 -1 168 -1 167 -17 -50 c-13 -36 -23 -50 -37 -50 -29 0 -27 30 9 130
l32 90 81 3 c62 2 84 -1 93 -12 17 -20 69 -188 63 -204 -2 -6 -12 -12 -22 -12
-13 0 -24 16 -38 58 l-20 57 -1 -172 -1 -173 281 0 281 0 -48 68 c-26 37 -67
94 -91 126 -23 33 -41 61 -40 63 2 1 18 -1 35 -7 24 -6 31 -6 25 3 -3 7 -51
82 -105 169 -54 86 -98 159 -98 161 0 3 14 2 30 -3 23 -6 29 -6 24 3 -4 7 -54
83 -111 170 -56 87 -103 161 -103 164 0 3 11 2 25 -1 14 -4 25 -3 25 0 0 7
-148 284 -156 293 -2 2 -4 2 -4 -1z m-16 -639 c31 -14 40 -47 20 -76 -16 -25
-62 -31 -82 -11 -20 20 -14 65 10 82 27 19 22 19 52 5z"/>
<path d="M2377 3187 c-4 -10 2 -13 19 -9 33 6 41 22 11 22 -14 0 -27 -6 -30
-13z"/>
<path d="M2272 2960 c-40 -55 -72 -103 -72 -106 0 -4 11 -4 25 -2 14 3 25 3
25 1 0 -3 -52 -81 -115 -174 l-115 -169 45 18 c44 17 48 23 135 181 50 89 90
165 90 168 0 3 -9 3 -20 0 -25 -6 -25 0 -2 38 42 70 83 145 79 145 -2 0 -36
-45 -75 -100z"/>
<path d="M5400 2645 c0 -132 2 -147 20 -165 11 -11 29 -20 40 -20 19 0 20 7
20 165 l0 165 -40 0 -40 0 0 -145z"/>
<path d="M6300 2651 c0 -125 2 -141 21 -165 19 -24 26 -26 100 -26 58 0 79 3
79 13 0 23 -23 37 -61 37 -47 0 -61 18 -57 72 3 39 6 43 31 46 21 3 27 9 27
28 0 20 -5 24 -30 24 -30 0 -30 1 -30 55 l0 55 -40 0 -40 0 0 -139z"/>
<path d="M6540 2760 c0 -28 2 -30 40 -30 38 0 40 2 40 30 0 28 -2 30 -40 30
-38 0 -40 -2 -40 -30z"/>
<path d="M6682 2644 c3 -139 4 -147 27 -165 18 -15 39 -19 97 -19 54 0 74 4
74 13 0 23 -23 37 -61 37 -47 0 -61 18 -57 72 3 39 6 43 31 46 21 3 27 9 27
28 0 20 -5 24 -30 24 -30 0 -30 1 -30 55 l0 55 -41 0 -40 0 3 -146z"/>
<path d="M7350 2647 c0 -137 1 -144 23 -165 20 -19 35 -22 100 -22 42 0 77 4
77 8 0 23 -29 41 -70 44 l-45 3 -3 58 -3 57 31 0 c25 0 30 4 30 25 0 21 -5 25
-30 25 -30 0 -30 1 -30 55 l0 55 -40 0 -40 0 0 -143z"/>
<path d="M8192 2770 c-21 -20 -22 -30 -22 -165 l0 -145 35 0 35 0 0 124 c0
157 -1 156 120 156 78 0 91 -2 100 -19 5 -11 10 -74 10 -140 l0 -121 40 0 40
0 0 130 c0 136 -10 180 -45 194 -9 3 -78 6 -154 6 -124 0 -139 -2 -159 -20z"/>
<path d="M9370 2760 c0 -28 2 -30 40 -30 38 0 40 2 40 30 0 28 -2 30 -40 30
-38 0 -40 -2 -40 -30z"/>
<path d="M10740 2645 c0 -181 2 -185 115 -185 67 0 75 2 75 19 0 22 -19 31
-65 31 -24 0 -38 6 -45 19 -5 11 -10 74 -10 140 l0 121 -35 0 -35 0 0 -145z"/>
<path d="M11400 2755 l0 -35 -108 0 c-100 0 -110 -2 -130 -23 -19 -20 -22 -35
-22 -108 0 -76 2 -88 23 -107 21 -20 34 -22 148 -22 172 0 169 -3 169 188 l0
142 -40 0 c-39 0 -40 -1 -40 -35z m-2 -162 l-3 -78 -85 0 -85 0 -3 69 c-2 49
1 72 10 77 7 5 48 9 91 9 l78 0 -3 -77z"/>
<path d="M12142 2767 c-20 -21 -22 -34 -22 -145 0 -167 -6 -162 189 -162 l150
0 20 26 c23 29 29 110 11 144 -7 13 -7 27 1 44 14 30 5 70 -21 96 -18 18 -34
20 -163 20 -137 0 -144 -1 -165 -23z m267 -41 c6 -7 9 -21 5 -30 -5 -13 -23
-16 -110 -16 -103 0 -104 0 -104 24 0 32 9 34 111 35 62 1 90 -3 98 -13z m-5
-112 c20 -19 21 -78 2 -93 -9 -8 -47 -11 -107 -9 l-94 3 -3 58 -3 57 95 0 c73
0 98 -4 110 -16z"/>
<path d="M5560 2700 c-18 -18 -20 -33 -20 -130 l0 -110 35 0 35 0 0 86 c0 119
4 124 93 124 44 0 78 -5 85 -12 8 -8 12 -46 12 -105 l0 -93 40 0 40 0 0 104
c0 89 -3 107 -21 130 -20 26 -22 26 -150 26 -116 0 -131 -2 -149 -20z"/>
<path d="M5950 2700 c-28 -28 -27 -90 1 -116 17 -15 40 -20 123 -23 101 -3
126 -12 104 -38 -16 -20 -157 -18 -164 2 -4 10 -20 15 -45 15 -32 0 -39 -3
-39 -20 0 -11 9 -29 20 -40 18 -18 33 -20 149 -20 128 0 130 0 150 26 28 35
26 67 -3 101 -23 27 -28 28 -131 31 -102 4 -106 5 -103 25 3 20 10 22 92 25
89 3 116 12 116 38 0 11 -25 14 -125 14 -112 0 -127 -2 -145 -20z"/>
<path d="M6930 2616 c0 -89 3 -107 21 -130 20 -26 22 -26 150 -26 170 0 169
-1 169 150 l0 110 -40 0 -39 0 -3 -102 -3 -103 -73 -3 c-46 -2 -79 2 -88 9
-10 8 -14 37 -14 105 l0 94 -40 0 -40 0 0 -104z"/>
<path d="M7611 2694 c-17 -22 -21 -41 -21 -104 0 -63 4 -82 21 -104 20 -26 22
-26 150 -26 167 0 169 2 169 130 0 128 -2 130 -169 130 -128 0 -130 0 -150
-26z m234 -104 l0 -75 -73 -3 c-46 -2 -79 2 -88 9 -18 15 -19 120 -2 137 9 9
38 12 88 10 l75 -3 0 -75z"/>
<path d="M8630 2707 c0 -29 25 -37 110 -37 85 0 110 -8 110 -37 0 -10 -26 -13
-107 -13 -69 -1 -114 -5 -124 -13 -27 -20 -41 -56 -34 -88 11 -51 36 -59 171
-59 164 0 169 4 169 130 0 127 -4 130 -171 130 -95 0 -124 -3 -124 -13z m220
-155 c0 -33 -22 -42 -96 -42 -80 0 -107 15 -79 44 12 12 36 16 96 16 69 0 79
-2 79 -18z"/>
<path d="M9010 2700 c-17 -17 -20 -33 -20 -110 0 -128 2 -130 169 -130 128 0
130 0 150 26 12 15 21 33 21 40 0 20 -74 18 -90 -1 -10 -12 -30 -15 -89 -13
l-76 3 0 75 0 75 114 3 c112 3 141 10 141 38 0 11 -29 14 -150 14 -137 0 -152
-2 -170 -20z"/>
<path d="M9550 2700 c-17 -17 -20 -33 -20 -110 0 -128 2 -130 169 -130 128 0
130 0 150 26 17 22 21 41 21 104 0 63 -4 82 -21 104 -20 26 -22 26 -150 26
-116 0 -131 -2 -149 -20z m228 -42 c17 -17 16 -123 -2 -137 -9 -7 -42 -11 -88
-9 l-73 3 -3 64 c-2 35 -1 70 2 77 7 18 147 19 164 2z"/>
<path d="M9965 2695 c-23 -23 -25 -31 -25 -130 l0 -105 40 0 40 0 0 93 c0 59
4 97 12 105 7 7 41 12 85 12 89 0 93 -5 93 -124 l0 -86 40 0 40 0 0 95 c0 100
-13 147 -45 159 -9 3 -70 6 -136 6 -114 0 -121 -1 -144 -25z"/>
<path d="M10390 2707 c0 -29 25 -37 112 -37 76 0 89 -2 98 -19 5 -11 10 -22
10 -25 0 -3 -47 -6 -104 -6 -121 0 -132 -3 -151 -41 -20 -38 -19 -62 6 -93 20
-26 22 -26 149 -26 162 0 172 6 178 103 5 79 -2 111 -28 137 -18 18 -34 20
-145 20 -96 0 -125 -3 -125 -13z m215 -147 c3 -5 1 -19 -5 -30 -9 -17 -21 -20
-84 -20 -55 0 -77 4 -87 16 -11 14 -10 18 6 30 22 16 160 20 170 4z"/>
<path d="M11572 2697 c-19 -20 -22 -35 -22 -108 0 -76 2 -88 23 -107 21 -20
34 -22 145 -22 115 0 122 1 122 20 0 24 -19 29 -125 32 -74 3 -80 5 -83 26 -3
22 -2 22 101 22 90 0 108 3 131 21 35 27 36 86 3 117 -21 20 -34 22 -148 22
-118 0 -127 -1 -147 -23z m236 -51 c6 -28 -15 -36 -100 -36 -75 0 -78 1 -78
23 0 13 3 27 7 31 4 4 43 5 87 4 70 -3 81 -6 84 -22z"/>
<path d="M12580 2700 c-17 -17 -20 -33 -20 -110 0 -128 2 -130 169 -130 128 0
130 0 150 26 17 22 21 41 21 104 0 63 -4 82 -21 104 -20 26 -22 26 -150 26
-116 0 -131 -2 -149 -20z m228 -42 c17 -17 16 -123 -2 -137 -9 -7 -42 -11 -88
-9 l-73 3 -3 64 c-2 35 -1 70 2 77 7 18 147 19 164 2z"/>
<path d="M12972 2697 c-35 -37 -26 -104 15 -123 10 -4 63 -11 118 -14 92 -5
100 -7 100 -25 0 -18 -8 -20 -83 -23 -67 -2 -83 0 -88 13 -4 10 -19 15 -45 15
-32 0 -39 -3 -39 -20 0 -11 9 -29 20 -40 18 -18 33 -20 149 -20 128 0 130 0
150 26 27 34 27 74 1 102 -12 12 -22 23 -23 23 -1 1 -49 4 -107 8 -96 5 -105
8 -105 26 0 18 8 20 80 23 106 3 125 8 125 32 0 19 -7 20 -123 20 -116 0 -125
-1 -145 -23z"/>
<path d="M13367 2708 c-57 -44 -46 -229 15 -243 13 -3 66 -6 118 -8 l95 -2 3
-32 c3 -30 6 -33 38 -33 l34 0 0 145 c0 191 5 185 -163 185 -83 0 -129 -4
-140 -12z m217 -54 c11 -11 16 -35 16 -80 l0 -64 -85 0 c-96 0 -105 7 -105 80
0 71 11 80 90 80 49 0 73 -4 84 -16z"/>
<path d="M13740 2610 c0 -151 -1 -150 169 -150 128 0 130 0 150 26 18 23 21
41 21 130 l0 104 -40 0 -40 0 0 -94 c0 -68 -4 -97 -14 -105 -9 -7 -42 -11 -88
-9 l-73 3 -3 103 -3 102 -39 0 -40 0 0 -110z"/>
<path d="M14161 2694 c-17 -22 -21 -41 -21 -109 0 -72 3 -84 23 -103 21 -20
34 -22 145 -22 113 0 122 1 122 19 0 26 -19 31 -109 31 -76 0 -101 9 -101 37
0 10 25 13 104 13 89 0 107 3 130 21 33 26 37 88 6 119 -18 18 -33 20 -149 20
-128 0 -130 0 -150 -26z m237 -48 c6 -28 -15 -36 -100 -36 -69 0 -78 2 -78 18
0 34 21 43 100 40 64 -3 75 -6 78 -22z"/>
<path d="M14541 2703 c-34 -29 -37 -74 -8 -109 24 -28 28 -29 132 -32 102 -4
106 -5 103 -25 -3 -20 -10 -22 -79 -25 -59 -2 -79 1 -89 13 -7 9 -29 15 -52
15 -36 0 -39 -2 -33 -22 15 -50 38 -58 170 -58 105 0 126 3 146 19 31 25 32
83 1 114 -20 19 -35 22 -125 26 -102 3 -127 12 -105 38 7 9 39 13 97 13 86 0
111 8 111 37 0 10 -29 13 -124 13 -103 0 -127 -3 -145 -17z"/>
<path d="M6540 2601 c0 -74 3 -92 21 -115 11 -14 29 -26 40 -26 18 0 19 8 19
115 l0 115 -40 0 -40 0 0 -89z"/>
<path d="M9372 2594 c3 -86 5 -98 27 -115 46 -38 51 -29 51 96 l0 115 -41 0
-41 0 4 -96z"/>
<path d="M1320 2180 l0 -70 95 0 95 0 0 70 0 70 -95 0 -95 0 0 -70z"/>
<path d="M3410 1948 c0 -272 2 -307 19 -343 20 -44 69 -92 104 -100 12 -3 141
-5 287 -3 263 3 265 3 298 27 61 47 72 87 72 270 0 187 -10 221 -82 268 l-41
28 -234 3 -233 3 0 75 0 74 -95 0 -95 0 0 -302z m572 5 c16 -14 18 -33 18
-159 0 -184 11 -174 -202 -174 -209 0 -198 -11 -198 195 l0 155 182 0 c155 0
184 -2 200 -17z"/>
<path d="M5460 2103 c-8 -3 -25 -15 -37 -26 -22 -20 -23 -27 -23 -189 l0 -168
50 0 50 0 0 149 c0 180 1 181 96 181 l64 0 0 -165 0 -165 55 0 55 0 0 165 0
165 63 0 c36 0 68 -5 75 -12 8 -8 12 -59 12 -165 l0 -153 55 0 55 0 0 155 c0
98 -4 164 -12 180 -23 51 -46 55 -305 54 -131 0 -245 -3 -253 -6z"/>
<path d="M6237 2103 c-13 -12 -7 -51 9 -57 9 -3 46 -6 84 -6 73 0 100 14 100
51 0 17 -8 19 -93 19 -52 0 -97 -3 -100 -7z"/>
<path d="M7360 1940 l0 -171 26 -24 c26 -25 30 -25 201 -25 171 0 174 0 198
25 23 22 25 31 25 128 0 98 -1 105 -26 128 -24 23 -33 24 -175 27 l-149 3 0
40 0 39 -50 0 -50 0 0 -170z m334 14 c20 -19 22 -144 4 -162 -8 -8 -48 -12
-115 -12 -91 0 -103 2 -113 19 -11 22 -14 154 -3 164 3 4 53 7 109 7 80 0 106
-3 118 -16z"/>
<path d="M11324 2100 c-48 -19 -54 -43 -54 -217 l0 -163 49 0 50 0 3 155 c2
125 6 158 18 165 8 5 43 10 78 10 l62 0 0 -165 0 -165 55 0 55 0 0 165 0 165
63 0 c36 0 68 -5 75 -12 8 -8 12 -59 12 -165 l0 -153 55 0 55 0 0 163 c0 174
-4 189 -57 216 -26 13 -487 14 -519 1z"/>
<path d="M12103 2094 c-13 -35 11 -49 85 -52 83 -3 112 8 112 43 0 25 -1 25
-95 25 -79 0 -97 -3 -102 -16z"/>
<path d="M13660 2075 l0 -35 55 0 55 0 0 35 0 35 -55 0 -55 0 0 -35z"/>
<path d="M14170 2070 l0 -40 -130 0 c-140 0 -189 -12 -209 -48 -6 -12 -11 -63
-11 -115 0 -94 0 -96 31 -121 30 -26 32 -26 201 -26 l170 0 29 29 29 29 0 166
0 166 -55 0 -55 0 0 -40z m0 -179 c0 -116 6 -111 -121 -111 -97 0 -109 2 -119
19 -16 30 -12 123 6 149 14 20 23 22 125 22 l109 0 0 -79z"/>
<path d="M1762 2092 c-36 -11 -93 -62 -108 -98 -11 -25 -14 -89 -14 -264 l0
-230 95 0 95 0 0 219 c0 186 2 222 16 235 13 13 44 16 183 16 150 0 170 -2
184 -18 15 -16 17 -48 17 -235 l0 -217 95 0 95 0 0 225 c0 279 -10 313 -105
356 -36 17 -67 18 -285 18 -135 -1 -255 -4 -268 -7z"/>
<path d="M2640 2057 c0 -78 10 -82 243 -85 225 -4 237 -7 237 -69 l0 -33 -222
0 c-242 0 -275 -7 -325 -61 -69 -76 -54 -221 29 -281 32 -22 39 -23 298 -26
146 -2 275 0 287 3 33 8 94 65 109 102 10 23 14 80 14 190 -1 204 -18 248
-113 288 -29 12 -85 15 -297 15 l-260 0 0 -43z m480 -357 c0 -27 -7 -47 -20
-60 -18 -18 -33 -20 -183 -20 -143 0 -166 2 -180 18 -25 28 -26 62 -1 86 13
13 46 16 200 16 l184 0 0 -40z"/>
<path d="M1320 1853 c0 -190 7 -241 38 -282 29 -40 81 -71 118 -71 l34 0 0
265 0 265 -95 0 -95 0 0 -177z"/>
<path d="M6152 2003 l3 -28 124 -3 c128 -3 151 -9 151 -43 0 -18 -9 -19 -129
-19 -71 0 -141 -4 -154 -9 -70 -27 -89 -101 -38 -152 l29 -29 170 0 c169 0
171 0 201 26 31 25 31 27 31 121 0 155 -12 163 -235 163 l-156 0 3 -27z m276
-185 l-3 -33 -115 0 c-102 0 -115 2 -118 18 -8 39 15 47 130 47 l109 0 -3 -32z"/>
<path d="M6655 2018 c-49 -27 -66 -73 -44 -121 20 -44 45 -52 194 -57 l140 -5
0 -25 0 -25 -112 -3 c-105 -2 -112 -1 -118 18 -5 17 -15 20 -61 20 -48 0 -54
-2 -54 -21 0 -11 13 -34 29 -50 l29 -29 173 0 173 0 28 27 c39 37 38 84 -1
124 l-29 29 -135 0 c-111 0 -137 3 -148 16 -9 11 -10 20 -2 32 8 14 31 17 134
20 102 2 126 5 137 19 29 40 20 43 -150 43 -99 0 -171 -5 -183 -12z"/>
<path d="M7945 2021 c-40 -17 -57 -48 -62 -115 -7 -84 3 -133 32 -162 24 -23
28 -24 200 -24 172 0 176 1 200 24 29 29 39 76 33 161 -3 55 -8 70 -31 93 -27
27 -28 27 -190 29 -89 1 -171 -1 -182 -6z m279 -67 c20 -19 22 -144 4 -162 -8
-8 -48 -12 -113 -12 -65 0 -105 4 -113 12 -7 7 -12 40 -12 79 0 93 7 99 125
99 72 0 97 -4 109 -16z"/>
<path d="M8460 2023 c-34 -13 -60 -47 -60 -80 0 -84 38 -103 203 -103 130 0
155 -8 141 -44 -5 -13 -24 -16 -115 -16 -98 0 -109 2 -119 20 -8 16 -21 20
-60 20 -47 0 -50 -2 -50 -25 0 -15 11 -36 26 -50 26 -25 30 -25 199 -25 158 0
175 2 198 20 47 37 44 101 -7 142 -17 15 -43 18 -153 18 -104 0 -135 3 -147
15 -19 19 -11 44 18 50 11 3 73 6 136 8 l115 2 3 28 3 27 -158 -1 c-87 0 -165
-3 -173 -6z"/>
<path d="M8946 2015 c-49 -26 -55 -42 -56 -143 0 -90 1 -95 29 -123 l29 -29
146 0 146 0 0 -46 0 -45 53 3 52 3 3 162 2 162 -29 33 -29 33 -159 3 c-128 2
-164 0 -187 -13z m278 -61 c12 -11 16 -36 16 -95 l0 -80 -117 3 -118 3 -3 80
c-4 101 1 105 119 105 66 0 91 -4 103 -16z"/>
<path d="M9420 1901 c0 -125 1 -129 26 -155 l27 -26 174 0 175 0 29 29 c29 29
29 30 29 155 l0 126 -55 0 -55 0 0 -109 c0 -60 -3 -116 -6 -125 -5 -13 -25
-16 -115 -16 -132 0 -129 -3 -129 144 l0 106 -50 0 -50 0 0 -129z"/>
<path d="M10010 2023 c-8 -3 -25 -15 -37 -26 -21 -19 -23 -29 -23 -124 0 -100
1 -105 26 -128 26 -24 30 -25 195 -25 161 0 169 1 169 20 0 32 -32 40 -154 40
-105 0 -116 2 -126 20 -6 11 -8 25 -5 30 4 6 67 10 149 10 137 0 144 1 169 24
50 46 44 116 -12 149 -24 14 -55 17 -183 16 -84 0 -160 -3 -168 -6z m280 -74
c22 -40 -1 -49 -126 -49 -106 0 -114 1 -114 19 0 41 25 51 130 51 90 0 100 -2
110 -21z"/>
<path d="M10495 2021 c-62 -26 -79 -102 -32 -149 27 -26 30 -27 167 -30 105
-3 142 -7 151 -18 9 -11 9 -17 -1 -29 -10 -12 -36 -15 -116 -15 -93 0 -104 2
-114 20 -8 16 -21 20 -59 20 -26 0 -50 -3 -54 -6 -3 -3 -1 -19 5 -35 19 -54
36 -59 221 -59 101 0 176 4 189 11 31 17 50 71 37 108 -18 50 -51 61 -193 61
-100 0 -128 3 -140 16 -12 12 -13 20 -6 35 10 17 22 19 133 19 127 0 147 6
147 42 0 17 -12 18 -157 17 -87 0 -167 -4 -178 -8z"/>
<path d="M12022 2003 l3 -28 125 -3 c113 -2 127 -4 143 -23 9 -12 17 -25 17
-30 0 -5 -61 -9 -136 -9 -150 0 -192 -11 -213 -56 -18 -41 -13 -74 18 -105
l29 -29 175 0 174 0 27 26 c24 25 26 32 26 121 0 155 -12 163 -235 163 l-156
0 3 -27z m284 -167 c3 -8 1 -24 -6 -35 -10 -19 -20 -21 -120 -21 -103 0 -109
1 -116 22 -11 37 18 48 133 48 80 0 105 -3 109 -14z"/>
<path d="M12518 2013 c-54 -34 -62 -88 -19 -135 l29 -33 144 -5 143 -5 0 -25
0 -25 -112 -3 c-105 -2 -112 -1 -118 18 -5 17 -15 20 -61 20 -48 0 -54 -2 -54
-21 0 -11 13 -34 29 -50 l29 -29 175 0 174 0 27 26 c38 39 36 93 -5 128 -29
25 -35 26 -164 26 -109 0 -135 3 -146 16 -9 11 -10 20 -2 32 8 14 31 17 133
20 126 3 150 10 150 43 0 18 -10 19 -162 19 -134 0 -168 -3 -190 -17z"/>
<path d="M13242 1898 c61 -166 73 -178 168 -178 94 0 106 12 168 178 l50 132
-58 0 -59 0 -21 -57 c-12 -32 -33 -88 -47 -125 -14 -38 -29 -68 -33 -68 -4 0
-29 56 -55 125 l-48 125 -57 0 -58 0 50 -132z"/>
<path d="M14412 2003 l3 -28 133 -5 c103 -4 135 -8 142 -20 23 -36 13 -38
-141 -42 l-151 -3 -30 -34 c-25 -28 -29 -39 -24 -70 3 -21 16 -45 31 -58 25
-22 34 -23 199 -23 170 0 174 0 200 25 25 23 26 28 26 128 0 98 -1 105 -26
128 -25 23 -32 24 -196 27 l-169 3 3 -28z m284 -167 c3 -8 1 -24 -6 -35 -10
-19 -20 -21 -120 -21 -61 0 -110 2 -110 4 0 2 -3 11 -6 19 -3 8 2 22 11 31 22
22 223 24 231 2z"/>
<path d="M13660 1884 c0 -103 1 -106 29 -135 17 -17 40 -29 55 -29 l26 0 0
135 0 135 -55 0 -55 0 0 -106z"/>
<path d="M10932 1778 c-7 -7 -12 -26 -12 -43 0 -36 15 -55 45 -55 30 0 45 19
45 55 0 36 -15 55 -45 55 -12 0 -26 -5 -33 -12z"/>
<path d="M1347 1393 c-4 -3 -7 -30 -7 -59 0 -59 6 -64 79 -64 51 0 71 13 71
45 0 31 -19 45 -62 45 -46 0 -51 -18 -5 -22 24 -2 32 -8 32 -23 0 -16 -8 -21
-42 -23 l-43 -3 0 45 0 46 50 0 c28 0 50 5 50 10 0 11 -113 14 -123 3z"/>
<path d="M2400 1347 c0 -29 5 -58 12 -65 14 -14 68 -16 68 -2 0 6 -9 10 -20
10 -28 0 -38 30 -15 46 16 12 17 14 2 20 -10 3 -17 15 -17 25 0 10 -7 19 -15
19 -11 0 -15 -13 -15 -53z"/>
<path d="M3760 1347 c0 -60 12 -77 52 -77 33 0 38 17 6 22 -20 3 -23 10 -26
56 -2 37 -7 52 -18 52 -10 0 -14 -13 -14 -53z"/>
<path d="M1700 1339 c0 -54 15 -69 68 -69 58 0 72 12 72 62 0 52 -28 53 -32 1
-3 -34 -6 -38 -32 -41 -33 -4 -46 10 -46 51 0 17 -5 27 -15 27 -10 0 -15 -10
-15 -31z"/>
<path d="M2075 1361 c3 -6 22 -11 41 -11 19 0 34 -4 34 -10 0 -5 -20 -10 -45
-10 -32 0 -47 -5 -51 -15 -10 -26 16 -45 60 -45 57 0 68 10 64 56 l-3 39 -53
3 c-36 2 -52 0 -47 -7z m75 -61 c0 -5 -13 -10 -29 -10 -17 0 -33 5 -36 10 -4
6 8 10 29 10 20 0 36 -4 36 -10z"/>
<path d="M2697 1363 c-14 -14 -7 -81 9 -87 25 -10 94 -7 94 4 0 6 -18 10 -40
10 -22 0 -40 5 -40 10 0 6 17 10 39 10 41 0 67 20 57 45 -4 11 -20 15 -59 15
-30 0 -57 -3 -60 -7z m88 -23 c-3 -5 -19 -10 -36 -10 -16 0 -29 5 -29 10 0 6
16 10 36 10 21 0 33 -4 29 -10z"/>
<path d="M3037 1363 c-4 -3 -7 -26 -7 -50 0 -32 4 -43 15 -43 11 0 15 11 15
40 0 33 3 40 20 40 17 0 20 -7 20 -40 0 -29 4 -40 15 -40 11 0 15 11 15 40 0
33 3 40 20 40 17 0 20 -7 20 -40 0 -29 4 -40 15 -40 10 0 15 10 15 34 0 62 -5
66 -84 66 -40 0 -76 -3 -79 -7z"/>
<path d="M3435 1360 c3 -5 22 -10 41 -10 19 0 34 -4 34 -10 0 -5 -20 -10 -45
-10 -32 0 -47 -5 -51 -15 -10 -25 16 -45 56 -45 61 0 70 7 70 56 l0 44 -56 0
c-34 0 -53 -4 -49 -10z m75 -60 c0 -5 -13 -10 -29 -10 -17 0 -33 5 -36 10 -4
6 8 10 29 10 20 0 36 -4 36 -10z"/>
<path d="M4065 1360 c3 -5 22 -10 41 -10 19 0 34 -4 34 -10 0 -5 -20 -10 -45
-10 -32 0 -47 -5 -51 -15 -10 -25 16 -45 56 -45 61 0 70 7 70 56 l0 44 -56 0
c-34 0 -53 -4 -49 -10z m75 -60 c0 -5 -13 -10 -29 -10 -17 0 -33 5 -36 10 -4
6 8 10 29 10 20 0 36 -4 36 -10z"/>
<path d="M1928 533 c7 -3 16 -2 19 1 4 3 -2 6 -13 5 -11 0 -14 -3 -6 -6z"/>
</g>
</svg>
