<?xml version="1.0" standalone="no"?>
<!DOCTYPE svg PUBLIC "-//W3C//DTD SVG 20010904//EN"
 "http://www.w3.org/TR/2001/REC-SVG-20010904/DTD/svg10.dtd">
<svg version="1.0" xmlns="http://www.w3.org/2000/svg"
 width="350.000000pt" height="202.000000pt" viewBox="0 0 350.000000 202.000000"
 preserveAspectRatio="xMidYMid meet">

<g transform="translate(0.000000,202.000000) scale(0.100000,-0.100000)"
fill="#000000" stroke="none">
<path d="M2038 1993 c7 -3 16 -2 19 1 4 3 -2 6 -13 5 -11 0 -14 -3 -6 -6z"/>
<path d="M1378 1983 c7 -3 16 -2 19 1 4 3 -2 6 -13 5 -11 0 -14 -3 -6 -6z"/>
<path d="M1239 1937 c-152 -67 -303 -194 -377 -319 -18 -31 -45 -89 -60 -130
-24 -65 -27 -87 -27 -203 1 -117 3 -138 28 -205 35 -97 78 -167 149 -244 54
-59 164 -143 236 -180 53 -27 36 -12 -42 38 -144 91 -274 260 -320 415 -42
143 -26 313 42 454 77 156 194 271 371 360 110 55 110 61 0 14z"/>
<path d="M2225 1927 c169 -84 300 -208 369 -352 57 -116 71 -177 70 -300 -1
-132 -29 -227 -99 -341 -53 -85 -176 -204 -265 -258 -36 -21 -56 -35 -45 -32
11 4 44 21 73 39 281 169 417 450 358 734 -46 217 -212 410 -438 512 -104 47
-119 45 -23 -2z"/>
<path d="M1660 1817 c0 -4 8 -22 17 -40 15 -28 27 -105 15 -93 -6 7 -117 -124
-170 -200 -7 -11 -2 3 12 30 14 26 23 52 20 57 -3 5 9 30 26 56 39 58 16 41
-28 -21 -18 -24 -28 -46 -22 -48 6 -2 -11 -34 -36 -72 -28 -41 -40 -67 -30
-63 17 7 23 -8 7 -17 -5 -4 -25 -29 -45 -56 l-36 -50 115 0 115 0 -1 68 c-1
37 -3 59 -6 50 -6 -22 -23 -24 -23 -3 0 24 28 85 39 85 5 0 7 8 4 19 -3 10 0
22 7 26 13 8 41 -13 38 -29 -1 -6 5 -22 14 -36 23 -34 33 -80 19 -80 -7 0 -16
10 -21 23 -6 16 -9 3 -9 -50 l-1 -73 115 0 c63 0 115 2 115 5 0 3 -16 27 -35
54 -23 31 -31 51 -24 53 8 3 -4 28 -30 67 -26 38 -39 66 -33 70 6 4 -7 32 -33
71 -24 36 -40 67 -35 70 4 3 -7 34 -26 70 -18 36 -33 61 -34 57z"/>
<path d="M1150 1269 c0 -29 2 -30 37 -27 32 3 37 6 38 31 1 25 -2 27 -37 27
-36 0 -38 -2 -38 -31z"/>
<path d="M2030 1165 c0 -179 -4 -175 163 -175 155 0 157 2 157 117 0 116 -6
122 -140 125 l-105 3 -3 33 c-3 29 -6 32 -38 32 l-34 0 0 -135z m238 13 c7 -7
12 -37 12 -68 0 -31 -5 -61 -12 -68 -7 -7 -40 -12 -78 -12 -38 0 -71 5 -78 12
-13 13 -17 130 -5 141 12 12 148 8 161 -5z"/>
<path d="M1325 1228 c-39 -23 -44 -41 -45 -143 l0 -100 37 1 38 1 5 99 5 99
60 3 c106 6 105 6 105 -102 l0 -94 35 -4 c20 -2 38 -2 40 1 3 2 5 46 5 97 0
84 -2 96 -24 121 -23 27 -28 28 -133 31 -70 1 -115 -2 -128 -10z"/>
<path d="M1704 1226 c-11 -29 7 -36 95 -36 86 0 111 -8 111 -37 0 -10 -24 -13
-99 -13 -84 0 -102 -3 -125 -21 -20 -16 -26 -29 -26 -58 0 -63 17 -71 158 -71
156 0 162 4 162 119 0 119 -7 125 -154 129 -97 3 -117 1 -122 -12z m206 -154
c0 -32 -22 -42 -91 -42 -70 0 -97 14 -85 45 4 12 24 15 91 15 75 0 85 -2 85
-18z"/>
<path d="M1150 1121 c0 -78 3 -94 20 -111 11 -11 25 -20 30 -20 6 0 13 0 16 0
3 0 6 48 6 108 l0 107 -36 3 -36 3 0 -90z"/>
<path d="M1152 918 c2 -15 11 -24 27 -26 25 -4 50 13 36 25 -4 5 -10 2 -12 -4
-8 -22 -36 -15 -30 7 3 13 0 20 -10 20 -9 0 -13 -8 -11 -22z"/>
<path d="M1600 915 c0 -17 5 -25 18 -24 9 0 12 3 6 5 -7 3 -10 14 -7 24 3 11
0 20 -6 20 -6 0 -11 -11 -11 -25z"/>
<path d="M2172 918 c2 -12 8 -23 14 -25 7 -2 10 6 7 22 -6 30 -26 34 -21 3z"/>
<path d="M1311 913 c-1 -18 4 -23 24 -23 20 0 25 5 24 23 -1 16 -2 18 -6 5 -2
-10 -11 -18 -18 -18 -7 0 -16 8 -18 18 -4 13 -5 11 -6 -5z"/>
<path d="M1461 917 c-14 -17 -4 -27 26 -27 16 0 23 6 23 20 0 23 -31 27 -49 7z
m29 -7 c0 -5 -5 -10 -11 -10 -5 0 -7 5 -4 10 3 6 8 10 11 10 2 0 4 -4 4 -10z"/>
<path d="M1720 910 c0 -14 6 -20 23 -19 12 0 16 3 10 6 -21 8 -14 25 7 18 11
-4 20 -2 20 4 0 6 -13 11 -30 11 -23 0 -30 -4 -30 -20z"/>
<path d="M1867 924 c-10 -10 -9 -34 2 -34 5 0 12 8 14 18 4 16 5 16 6 0 0 -10
5 -18 10 -18 5 0 12 8 14 18 4 16 5 16 6 0 0 -10 6 -18 12 -18 6 0 9 8 7 18
-3 17 -57 30 -71 16z"/>
<path d="M2033 916 c-15 -17 -7 -26 24 -26 16 0 23 6 23 20 0 23 -29 27 -47 6z
m32 -6 c3 -5 -1 -10 -10 -10 -9 0 -13 5 -10 10 3 6 8 10 10 10 2 0 7 -4 10
-10z"/>
<path d="M2302 918 c-20 -20 -14 -30 15 -26 32 4 46 38 16 38 -11 0 -24 -5
-31 -12z m28 -8 c0 -5 -5 -10 -11 -10 -5 0 -7 5 -4 10 3 6 8 10 11 10 2 0 4
-4 4 -10z"/>
</g>
</svg>
